<svg width="32" height="30" viewBox="0 0 32 30" fill="none" xmlns="http://www.w3.org/2000/svg">
<path d="M1.7293 16.7875L14.2293 29.2875C14.4671 29.5151 14.7474 29.6935 15.0543 29.8125C15.663 30.0625 16.3456 30.0625 16.9543 29.8125C17.2612 29.6935 17.5415 29.5151 17.7793 29.2875L30.2793 16.7875C30.5124 16.5544 30.6973 16.2776 30.8234 15.9731C30.9496 15.6685 31.0145 15.3421 31.0145 15.0125C31.0145 14.3467 30.7501 13.7082 30.2793 13.2375C29.8085 12.7667 29.1701 12.5022 28.5043 12.5022C27.8385 12.5022 27.2001 12.7667 26.7293 13.2375L18.5043 21.4875L18.5043 2.51247C18.5043 1.84943 18.2409 1.21354 17.7721 0.744698C17.3032 0.275857 16.6673 0.0124669 16.0043 0.0124669C15.3413 0.0124669 14.7054 0.275857 14.2365 0.744698C13.7677 1.21354 13.5043 1.84943 13.5043 2.51247L13.5043 21.4875L5.2793 13.2375C5.04689 13.0031 4.77039 12.8172 4.46574 12.6902C4.16109 12.5633 3.83433 12.498 3.5043 12.498C3.17427 12.498 2.8475 12.5633 2.54286 12.6902C2.23821 12.8172 1.96171 13.0031 1.7293 13.2375C1.49498 13.4699 1.30899 13.7464 1.18207 14.051C1.05515 14.3557 0.989802 14.6824 0.989802 15.0125C0.989802 15.3425 1.05515 15.6693 1.18207 15.9739C1.30899 16.2786 1.49498 16.5551 1.7293 16.7875Z" fill="white"/>
</svg>
