<svg width="32" height="30" viewBox="0 0 32 30" fill="none" xmlns="http://www.w3.org/2000/svg">
<path d="M30.275 13.225L17.775 0.724985C17.5372 0.497383 17.2569 0.318971 16.95 0.199985C16.3413 -0.0500601 15.6586 -0.0500601 15.05 0.199985C14.7431 0.318971 14.4627 0.497383 14.225 0.724985L1.72498 13.225C1.49188 13.4581 1.30698 13.7348 1.18083 14.0394C1.05468 14.3439 0.989746 14.6703 0.989746 15C0.989746 15.6657 1.25422 16.3042 1.72498 16.775C2.19573 17.2457 2.83422 17.5102 3.49998 17.5102C4.16573 17.5102 4.80422 17.2457 5.27498 16.775L13.5 8.52498V27.5C13.5 28.163 13.7634 28.7989 14.2322 29.2678C14.701 29.7366 15.3369 30 16 30C16.663 30 17.2989 29.7366 17.7677 29.2678C18.2366 28.7989 18.5 28.163 18.5 27.5V8.52498L26.725 16.775C26.9574 17.0093 27.2339 17.1953 27.5385 17.3222C27.8432 17.4491 28.1699 17.5145 28.5 17.5145C28.83 17.5145 29.1568 17.4491 29.4614 17.3222C29.7661 17.1953 30.0426 17.0093 30.275 16.775C30.5093 16.5426 30.6953 16.2661 30.8222 15.9614C30.9491 15.6568 31.0145 15.33 31.0145 15C31.0145 14.67 30.9491 14.3432 30.8222 14.0385C30.6953 13.7339 30.5093 13.4574 30.275 13.225Z" fill="white"/>
</svg>
