<svg width="45" height="25" viewBox="0 0 45 25" fill="none" xmlns="http://www.w3.org/2000/svg">
<path d="M10 5V0H45V5H10ZM10 15V10H45V15H10ZM10 25V20H45V25H10ZM2.5 5C1.79167 5 1.19833 4.76 0.72 4.28C0.241667 3.8 0.00166667 3.20667 0 2.5C0 1.79167 0.24 1.19833 0.72 0.72C1.2 0.241667 1.79333 0.00166667 2.5 0C3.20833 0 3.8025 0.24 4.2825 0.72C4.7625 1.2 5.00167 1.79333 5 2.5C5 3.20833 4.76 3.8025 4.28 4.2825C3.8 4.7625 3.20667 5.00167 2.5 5ZM2.5 15C1.79167 15 1.19833 14.76 0.72 14.28C0.241667 13.8 0.00166667 13.2067 0 12.5C0 11.7917 0.24 11.1983 0.72 10.72C1.2 10.2417 1.79333 10.0017 2.5 10C3.20833 10 3.8025 10.24 4.2825 10.72C4.7625 11.2 5.00167 11.7933 5 12.5C5 13.2083 4.76 13.8025 4.28 14.2825C3.8 14.7625 3.20667 15.0017 2.5 15ZM2.5 25C1.79167 25 1.19833 24.76 0.72 24.28C0.241667 23.8 0.00166667 23.2067 0 22.5C0 21.7917 0.24 21.1983 0.72 20.72C1.2 20.2417 1.79333 20.0017 2.5 20C3.20833 20 3.8025 20.24 4.2825 20.72C4.7625 21.2 5.00167 21.7933 5 22.5C5 23.2083 4.76 23.8025 4.28 24.2825C3.8 24.7625 3.20667 25.0017 2.5 25Z" fill="#B57ACC"/>
</svg>
